<svg xmlns="http://www.w3.org/2000/svg" width="227" height="197" fill="none"><ellipse cx="113.5" cy="150" fill="#335524" fill-opacity=".08" rx="96.5" ry="7"/><path stroke="#000" stroke-linecap="round" d="M95.5 137c1.5 1.333 4.5 5.5 4.5 11.5h5M68.5 137c-1.5 1.333-4.5 5.5-4.5 11.5h-5"/><path fill="#ABBD51" stroke="#000" stroke-width="2" d="M112.063 48.5c7 16.5 19 68 0 84s-46 7.9-58-2.5c-15-13-14.5-39.5 0-71.5s24.5-33.5 34-33.5 17 7 24 23.5Z"/><mask id="a" width="82" height="119" x="42" y="24" maskUnits="userSpaceOnUse" style="mask-type:alpha"><path fill="#ABBD51" d="M112.063 48.5c7 16.5 19 68 0 84s-46 7.9-58-2.5c-15-13-14.5-39.5 0-71.5s24.5-33.5 34-33.5 17 7 24 23.5Z"/><path fill="#000" fill-opacity=".1" d="M112.063 48.5c7 16.5 19 68 0 84s-46 7.9-58-2.5c-15-13-14.5-39.5 0-71.5s24.5-33.5 34-33.5 17 7 24 23.5Z"/><path stroke="#000" stroke-width="2" d="M112.063 48.5c7 16.5 19 68 0 84s-46 7.9-58-2.5c-15-13-14.5-39.5 0-71.5s24.5-33.5 34-33.5 17 7 24 23.5Z"/></mask><g mask="url(#a)"><ellipse cx="121" cy="109.5" fill="#000" fill-opacity=".09" rx="11" ry="23.5"/></g><circle cx="84.5" cy="67.5" r="7.5" fill="#fff" stroke="#000"/><circle cx="87.5" cy="68.5" r="2.5" fill="#000"/><circle cx="101.5" cy="71.5" r="7.5" fill="#fff" stroke="#000"/><circle cx="104.5" cy="71.5" r="2.5" fill="#000"/><circle cx="66.5" cy="69.5" r="7.5" fill="#fff" stroke="#000"/><circle cx="69.5" cy="69.5" r="2.5" fill="#000"/><circle cx="69.5" cy="69.5" r="2.5" fill="#000"/><path stroke="#000" stroke-linecap="round" d="M157.5 136.5c1.5 1.333 4.5 5.5 4.5 11.5h5M140.5 136.5c-1.5 1.333-4.5 5.5-4.5 11.5h-5"/><path fill="#C68C3F" stroke="#000" stroke-width="2" d="M169.2 62.255c-3-30.5-3.5-42-21.5-45s-23.01 20.957-23.5 44c-.5 23.5-7.5 20.5-10 44-2.5 23.501 19 34 33.5 34s27.5-6.499 31-24.5c3.5-18-6.5-22-9.5-52.5Z"/><path stroke="#000" stroke-linecap="round" d="m145.585 60.5-3.5 23.5c-.167 1-.2 3.1 1 3.5 1.2.4 2.084-.5 2.5-2.5.415-2 2.5-26 2.5-26"/><circle cx="154.5" cy="62.5" r="7.5" fill="#fff" stroke="#000"/><circle cx="150.5" cy="61.5" r="2.5" fill="#000"/><circle cx="138.5" cy="59.5" r="7.5" fill="#fff" stroke="#000"/><circle cx="140.5" cy="59.5" r="2.5" fill="#000"/><path stroke="#000" d="M131 50.5c2.667-1.5 8.7-4.5 11.5-4.5M163.5 55.5C160.833 54 154.8 51 152 51"/><path fill="#000" d="M12.617 192.032c-.683 0-1.174-.011-1.472-.032H7.625a1.45 1.45 0 0 1-.512-.096 2.027 2.027 0 0 0-.576-.096l-.288.032c-.213-.064-.32-.181-.32-.352l-2.24-10.144a674.166 674.166 0 0 1-1.536-7.904c-.107-.085-.203-.363-.288-.832a15.737 15.737 0 0 1-.032-1.184c0-.277.043-.501.128-.672.107-.192.256-.288.448-.288h1.184c.15.043.416.064.8.064l1.44.032h1.632l.192.032c.021.021.043.032.064.032h.032l.032.064c.021 0 .043-.011.064-.032a.288.288 0 0 1 .128-.032c.128-.043.213-.064.256-.064h.096l.288.032c.235.021.693.032 1.376.032.213.043.458.064.736.064.107.192.213.523.32.992.128.469.256.992.384 1.568.043.32.15.992.32 2.016.064.32.139.725.224 1.216l.192 1.024c0 .021.01.064.032.128a.448.448 0 0 1 .032.192l.096.64c.042.171.085.437.128.8.042.107.074.245.096.416.021.149.042.277.064.384l.064.32c.021.085.032.181.032.288l.064.288.032.128c0 .064.021.117.064.16v.192l.064-.192v-.16l.032-.128c0-.064.021-.16.064-.288 0-.149.032-.352.096-.608.043-.128.075-.256.096-.384.021-.149.043-.288.064-.416l.128-.8c.043-.128.075-.256.096-.384.021-.128.032-.213.032-.256l.032-.32c.618-3.221 1.056-5.269 1.312-6.144.021-.128.053-.245.096-.352a.628.628 0 0 1 .288-.288c.021-.043.085-.075.192-.096a2.04 2.04 0 0 0 .288-.064c.448-.064.768-.096.96-.096h1.472l1.12.032c.192.021.416.032.672.032h.096l.032-.032.032-.032c.085 0 .139.021.16.064.043 0 .064.011.064.032h.032c.384.021.832.032 1.344.032.213.021.437.032.672.032.192 0 .299.021.32.064a.252.252 0 0 0 .096-.032.288.288 0 0 1 .128-.032c.043-.043.15-.064.32-.064H23.849c.341 0 .544.043.608.128.17.64.31 1.44.416 2.4l.096.704c.17 1.216.352 2.24.544 3.072l.064.384c.064.448.096.725.096.832.021.213.075.555.16 1.024.043.491.096.832.16 1.024 0 .235.021.501.064.8.021.107.043.192.064.256a.25.25 0 0 1 .032.096c0 .107.01.203.032.288l.032.192a.72.72 0 0 1 .096-.192v-.288l.032-.352.128-.8.16-1.024c.021-.277.075-.619.16-1.024l.096-.832c.021-.107.032-.192.032-.256a.529.529 0 0 0 .032-.128c.128-.597.213-1.045.256-1.344l.128-.672c.299-1.579.544-2.667.736-3.264.064-.363.17-.661.32-.896.128 0 .267-.011.416-.032.15-.021.299-.032.448-.032.17 0 .362-.021.576-.064h.064c.064 0 .096.021.096.064v.032c0 .021.01.032.032.032.085 0 .15-.011.192-.032a.25.25 0 0 1 .096-.032l.032-.064h1.952c.235 0 .437-.011.608-.032h.8c.405 0 .683-.021.832-.064h1.216c.17 0 .298.096.384.288.106.192.16.416.16.672-.107.277-.203.672-.288 1.184a9.325 9.325 0 0 0-.032.832c-.704 3.307-1.419 6.261-2.144 8.864l-2.24 9.184c-.192.043-.299.107-.32.192v.16l-.32-.032c-.17 0-.299.011-.384.032l-.384.032h-1.6c-.832 0-1.45-.011-1.856-.032h-4.32a9.702 9.702 0 0 0-.896-.032l-.32.032c-.213-.064-.32-.181-.32-.352l-2.144-10.56-2.112 10.56c-.107.341-.448.512-1.024.512h-1.504c-.277.021-.768.032-1.472.032Zm36.413.768c-.17 0-.405-.021-.704-.064-.149-.043-.384-.064-.704-.064-.81 0-1.813-.181-3.008-.544h-.224c-.149 0-.309-.043-.48-.128a.394.394 0 0 0-.16-.096 5.331 5.331 0 0 1-.224-.16l-.672-.384a5.645 5.645 0 0 1-1.696-1.504 8.94 8.94 0 0 1-1.184-2.176 11.955 11.955 0 0 1-.864-4.448c0-1.685.342-3.307 1.024-4.864.726-1.643 1.696-2.944 2.912-3.904 1.344-1.067 2.838-1.6 4.48-1.6.512 0 .907.021 1.184.064 0-.043.032-.064.096-.064h.096c1.494 0 2.827.053 4 .16a8.249 8.249 0 0 1 2.784.928c1.707 1.131 2.934 2.368 3.68 3.712.79 1.493 1.184 3.253 1.184 5.28s-.48 3.925-1.44 5.696l-.32.512c-.085.128-.138.192-.16.192l-.096.16-.224.128c-.917 1.365-2.304 2.293-4.16 2.784-1.237.256-2.944.384-5.12.384Zm.544-2.4c.192 0 .342-.117.448-.352.256-.384.47-1.131.64-2.24.022-.192.075-.619.16-1.28.086-.661.139-1.28.16-1.856.086-1.451.128-2.347.128-2.688v-.992c0-.768-.032-1.429-.096-1.984-.064-.875-.192-1.568-.384-2.08-.192-.256-.341-.384-.448-.384-.213 0-.416.16-.608.48-.192.32-.341.907-.448 1.76l-.672 5.12v1.056c.064.896.096 1.483.096 1.76l.064.768.096 1.024c0 .171.022.32.064.448l.352 1.184a.288.288 0 0 0 .16.192.779.779 0 0 0 .288.064Zm28.957 1.952a20.096 20.096 0 0 1-2.4-2.784c-.47-.619-1.195-1.717-2.176-3.296l-.544-.864c-.022-.021-.043-.032-.064-.032v-.032h-.16l-.128.064c-.022.277-.032 1.024-.032 2.24 0 .789-.043 1.717-.128 2.784l-.032.96c-.086.235-.139.352-.16.352h-.32c-2.347.171-4.054.256-5.12.256h-1.088c-.235 0-.406-.011-.512-.032h-.224l-.992-.32-.064-.224c-.043 0-.075-.043-.096-.128v-.192a65.324 65.324 0 0 0-.16-1.952 83.751 83.751 0 0 1-.16-2.528 15.908 15.908 0 0 1-.064-.992l-.16-1.76-.032-.96a7.7 7.7 0 0 1-.032-.8v-.288c.042-.107.064-.277.064-.512v-.544c.021-.085.032-.181.032-.288l-.032-.256v-.32a.798.798 0 0 0-.064-.352v-.192l.032-.8c.021-.149.032-.373.032-.672.042-.64.064-1.248.064-1.824v-.32c-.022-.064-.032-.203-.032-.416v-.768c-.064-.064-.096-.128-.096-.192 0-.299.266-.512.8-.64.277-.085.672-.128 1.184-.128 4.992 0 8.725.171 11.2.512 2.432.341 4.138.928 5.12 1.76.426.405.725.885.896 1.44.192.533.288 1.173.288 1.92 0 1.195-.342 2.197-1.024 3.008-.448.448-.971.821-1.568 1.12.128.32.501.96 1.12 1.92.128.149.245.309.352.48.128.171.277.352.448.544.405.555.874 1.163 1.408 1.824.021.085.106.267.256.544.106.043.16.096.16.16.021.043.01.107-.032.192-.171.256-.672.629-1.504 1.12a3.037 3.037 0 0 1-.384.32c-.427.341-1.014.693-1.76 1.056-.683.363-1.27.619-1.76.768-.192.107-.31.128-.352.064Zm-5.824-11.264c.277 0 .65-.053 1.12-.16.448-.128.768-.256.96-.384.32-.192.597-.405.832-.64.234-.277.352-.597.352-.96 0-.597-.182-1.077-.544-1.44-.32-.256-.715-.384-1.184-.384h-1.376c0 .277-.022.715-.064 1.312l-.032.672c-.043.427-.064 1.088-.064 1.984ZM92.803 192a186.94 186.94 0 0 0-4.192-.032c-.299 0-.502-.192-.608-.576-.064-.213-.096-.587-.096-1.12 0-.96-.022-1.803-.064-2.528 0-.661-.022-1.867-.064-3.616l-.032-3.84v-6.048c0-.149.074-.309.224-.48.17-.171.33-.256.48-.256l1.856.032c.298.021.736.032 1.312.032.618.021 1.386.032 2.304.032 1.365 0 2.432-.011 3.2-.032.746-.043 1.994-.064 3.744-.064 1.194 0 2.293.213 3.296.64a6.623 6.623 0 0 1 3.008 2.496c.853 1.323 1.28 3.04 1.28 5.152 0 1.899-.214 3.488-.64 4.768-.406 1.28-1.067 2.315-1.984 3.104-.939.811-2.176 1.408-3.712 1.792-1.515.363-3.414.544-5.696.544h-3.616Zm3.84-3.616c.469 0 .778-.021.928-.064a.745.745 0 0 0 .32-.16c.32-.32.618-1.269.896-2.848.234-1.472.352-2.848.352-4.128v-.512c0-.747-.054-1.461-.16-2.144-.086-.832-.256-1.515-.512-2.048-.15-.235-.342-.352-.576-.352-.192 0-.427.053-.704.16l-.224.096c0 .491-.022 1.589-.064 3.296l-.032 1.984c0 .427-.011.757-.032.992l-.032.992-.16 4.736Zm16.159 3.584c-.363 0-.597-.235-.704-.704-.107-.235-.16-.661-.16-1.28 0-1.856-.021-3.509-.064-4.96a216.958 216.958 0 0 1-.096-6.624v-7.04c0-.192.085-.373.256-.544.192-.192.384-.288.576-.288l3.68.032a91.1 91.1 0 0 0 2.688.032c1.6 0 2.837-.011 3.712-.032l1.184-.032a97.495 97.495 0 0 1 3.168-.064c1.344 0 2.624.192 3.84.576 1.429.427 2.592 1.163 3.488 2.208 1.003 1.131 1.504 2.656 1.504 4.576 0 3.243-.821 5.589-2.464 7.04-1.451 1.365-3.616 2.048-6.496 2.048h-4.384c.021.491.032 1.013.032 1.568 0 .192-.011.427-.032.704v1.056c0 .704-.149 1.152-.448 1.344-.235.192-.672.288-1.312.288-.939 0-1.589.011-1.952.032-1.472 0-2.645.021-3.52.064h-2.496Zm11.456-8.896c.448 0 .779-.427.992-1.28.171-.576.299-1.429.384-2.56.043-.619.064-1.312.064-2.08v-.352c0-.341-.053-.853-.16-1.536-.085-.384-.181-.683-.288-.896a1.663 1.663 0 0 0-.416-.576c-.171-.192-.363-.288-.576-.288a.398.398 0 0 0-.288.128 2.091 2.091 0 0 0-.192.32c-.235.384-.448 1.237-.64 2.56-.064.384-.117.96-.16 1.728-.107 1.173-.16 2.741-.16 4.704l.032.032a.344.344 0 0 0 .128.064l.384.032h.896Zm15.58 8.8c-.043 0-.075-.043-.096-.128a1.775 1.775 0 0 1-.32-.704 1.519 1.519 0 0 1-.16-.416c-.192-.384-.331-.917-.416-1.6a28.155 28.155 0 0 1-.128-2.336 13.14 13.14 0 0 1-.032-1.056v-.768c0-.64-.011-1.141-.032-1.504-.022-.384-.032-1.141-.032-2.272 0-3.029.064-5.365.192-7.008 0-.256.362-.448 1.088-.576h1.76c1.216 0 2.122.021 2.72.064.896.064 1.802.096 2.72.096.213 0 .373-.011.48-.032h.48l.16.128a14.523 14.523 0 0 1 2.176-.288 48.454 48.454 0 0 1 2.72-.064c.042 0 .096.032.16.096h1.024c.17 0 .298.096.384.288.106.192.192.469.256.832.085.277.149.619.192 1.024.085.533.16.885.224 1.056 0 .597-.107.896-.32.896-.022 0-.054-.032-.096-.096l-.128-.032a.683.683 0 0 0-.352.032.918.918 0 0 1-.416.096.518.518 0 0 1-.32-.096c-.043-.021-.139-.032-.288-.032a2.82 2.82 0 0 0-.672.096 8.756 8.756 0 0 1-.512.096 4.683 4.683 0 0 1-.832.064c-.918 0-1.579.021-1.984.064a1.851 1.851 0 0 0-.672.192v-.064c-.086 0-.16.107-.224.32-.15.363-.246.864-.288 1.504a5.666 5.666 0 0 0-.032.64c0 .235.032.395.096.48.085.085.213.128.384.128a.437.437 0 0 0 .32-.128.54.54 0 0 1 .16.032.396.396 0 0 1 .16.096h2.72a.203.203 0 0 1 .096-.096.285.285 0 0 1 .128-.032c.213 0 .373.032.48.096.128.064.384.128.768.192.213 0 .362.064.448.192.106.149.16.288.16.416l.672 2.112c.064.341-.256.565-.96.672-.406.085-1.184.128-2.336.128h-2.336c-.299 0-.523.021-.672.064-.15.021-.246.096-.288.224-.086.107-.128.277-.128.512v.128c0 .107.01.181.032.224l-.032.704a5.046 5.046 0 0 0-.032.672v.8c.96 0 1.941-.032 2.944-.096a44.731 44.731 0 0 1 2.912-.096c.064 0 .117.053.16.16a.72.72 0 0 1 .064.32c.042.128.064.267.064.416.042.32.106.619.192.896l.224.928v.992l-.256.224h-.32c-.235 0-.384-.011-.448-.032a.393.393 0 0 0-.224-.064l-.192.096c-.086.043-.16.085-.224.128v-.16l-.384.032h-.48c-.086 0-.15-.021-.192-.064l-.256-.032c-.79 0-1.344.075-1.664.224h-10.144Zm19.354.16c-.406 0-.566-.363-.48-1.088 0-.256.053-.544.16-.864 0-.149.01-.267.032-.352a1.41 1.41 0 0 0 .032-.256 139.07 139.07 0 0 1 1.632-6.88l2.176-8.512c0-.043.032-.096.096-.16s.128-.117.192-.16h.224c.256 0 .458-.032.608-.096a4.79 4.79 0 0 1 .672-.032c.512 0 .896.011 1.152.032.384.064.778.096 1.184.096l1.664-.032a2.51 2.51 0 0 1 .608-.064l1.408-.064h1.056c.405 0 .8.011 1.184.032h.896c.213.021.522.032.928.032h1.216c.064 0 .128.011.192.032s.117.043.16.064a.707.707 0 0 0 .32.064h.288c.149.107.224.213.224.32l2.272 8.448a176.036 176.036 0 0 1 1.664 6.88c0 .107.032.309.096.608.085.427.128.768.128 1.024 0 .149-.022.352-.064.608-.107.213-.256.32-.448.32h-.352c-.278 0-.491-.011-.64-.032h-1.92c-.15 0-.235-.011-.256-.032h-1.76l-.032-.064c-.043-.043-.107-.064-.192-.064l-.096.064c0 .043-.022.064-.064.064h-.32c-.107-.043-.299-.064-.576-.064a15.756 15.756 0 0 0-1.28-.064c-.235-.491-.512-1.568-.832-3.232-.448.064-.96.096-1.536.096H169.176c-.086.32-.139.587-.16.8-.022.107-.107.469-.256 1.088-.15.619-.288 1.035-.416 1.248l-.192.064a1.203 1.203 0 0 0-.16.064h-.128c-.128 0-.214-.021-.256-.064a.562.562 0 0 0-.16-.064l-1.216.064h-.896a2.196 2.196 0 0 0-.256.064h-2.944c-.192.021-.587.032-1.184.032h-.768a4.154 4.154 0 0 1-.608.032h-.384Zm12.864-6.848c-.128-.725-.203-1.152-.224-1.28l-.256-1.536a23.9 23.9 0 0 0-.128-.8 10.504 10.504 0 0 1-.096-.704 14.54 14.54 0 0 1-.16-.704 5.33 5.33 0 0 0-.096-.64 8.194 8.194 0 0 1-.064-.48c-.022-.213-.054-.363-.096-.448l-.064-.384a.4.4 0 0 0-.064-.224l-.032-.192-.064.192v.224a.544.544 0 0 1-.032.128 1.021 1.021 0 0 0-.064.256 5.44 5.44 0 0 0-.064.416c-.022.149-.054.32-.096.512l-.224 1.312-.256 1.472-.096.704a6.835 6.835 0 0 0-.128.832c-.192.96-.278 1.397-.256 1.312h1.408a.36.36 0 0 1 .096-.064c.042-.043.074-.064.096-.064h.096c.106 0 .192.011.256.032.085.021.16.043.224.064.128.043.256.064.384.064Zm27.443 7.168a20.178 20.178 0 0 1-2.4-2.784c-.469-.619-1.194-1.717-2.176-3.296l-.544-.864c-.021-.021-.042-.032-.064-.032v-.032h-.16l-.128.064c-.021.277-.032 1.024-.032 2.24 0 .789-.042 1.717-.128 2.784l-.032.96c-.085.235-.138.352-.16.352h-.32c-2.346.171-4.053.256-5.12.256h-1.088c-.234 0-.405-.011-.512-.032h-.224l-.992-.32-.064-.224c-.042 0-.074-.043-.096-.128v-.192a64.306 64.306 0 0 0-.16-1.952 86.915 86.915 0 0 1-.16-2.528 16.421 16.421 0 0 1-.064-.992l-.16-1.76-.032-.96a7.785 7.785 0 0 1-.032-.8v-.288c.043-.107.064-.277.064-.512v-.544c.022-.085.032-.181.032-.288l-.032-.256v-.32a.793.793 0 0 0-.064-.352v-.192l.032-.8c.022-.149.032-.373.032-.672.043-.64.064-1.248.064-1.824v-.32c-.021-.064-.032-.203-.032-.416v-.768c-.064-.064-.096-.128-.096-.192 0-.299.267-.512.8-.64.278-.085.672-.128 1.184-.128 4.992 0 8.726.171 11.2.512 2.432.341 4.139.928 5.12 1.76.427.405.726.885.896 1.44.192.533.288 1.173.288 1.92 0 1.195-.341 2.197-1.024 3.008-.448.448-.97.821-1.568 1.12.128.32.502.96 1.12 1.92.128.149.246.309.352.48.128.171.278.352.448.544a49.36 49.36 0 0 0 1.408 1.824c.022.085.107.267.256.544.107.043.16.096.16.16.022.043.011.107-.032.192-.17.256-.672.629-1.504 1.12a2.954 2.954 0 0 1-.384.32c-.426.341-1.013.693-1.76 1.056-.682.363-1.269.619-1.76.768-.192.107-.309.128-.352.064Zm-5.824-11.264c.278 0 .651-.053 1.12-.16.448-.128.768-.256.96-.384.32-.192.598-.405.832-.64a1.44 1.44 0 0 0 .352-.96c0-.597-.181-1.077-.544-1.44-.32-.256-.714-.384-1.184-.384h-1.376c0 .277-.021.715-.064 1.312l-.032.672c-.042.427-.064 1.088-.064 1.984Zm18.752 11.552-.736-.128a11.815 11.815 0 0 1-1.76-.384 1.396 1.396 0 0 1-.672-.224c-.17-.064-.277-.149-.32-.256l-.704-3.968v-.16c0-.149.011-.256.032-.32a.301.301 0 0 1 .224-.16c1.387.533 2.752.8 4.096.8.427 0 .758.011.992.032.811 0 1.398-.107 1.76-.32a.616.616 0 0 0 .288-.544c0-.341-.106-.619-.32-.832-.213-.235-.522-.437-.928-.608l-1.024-.384a5.316 5.316 0 0 1-1.024-.352c0-.021-.01-.032-.032-.032a.387.387 0 0 1-.064-.096c-.085-.021-.266-.128-.544-.32l-.192-.096c.043 0 .064-.011.064-.032s-.032-.043-.096-.064a2.957 2.957 0 0 0-.384-.192 2.554 2.554 0 0 1-.448-.352c-.192-.107-.288-.235-.288-.384v-.16c-.533 0-.992-.555-1.376-1.664-.32-1.131-.48-1.931-.48-2.4 0-1.984.854-3.509 2.56-4.576 1.387-.875 3.296-1.461 5.728-1.76 1.579-.171 3.542-.256 5.888-.256.299.107.534.171.704.192.384.021.64.149.768.384.064.107.118.32.16.64.064.341.128 1.333.192 2.976.043.043.064.107.064.192 0 .171-.234.309-.704.416-.512.064-.842.096-.992.096l-.736.096c-.832.107-1.376.181-1.632.224-.874.149-1.482.416-1.824.8-.213.256-.32.523-.32.8 0 .149.022.267.064.352.043.085.15.181.32.288.192.107.747.373 1.664.8.982.427 1.963.981 2.944 1.664a4.794 4.794 0 0 1 1.792 2.304c.192.405.288.939.288 1.6 0 .597-.074 1.109-.224 1.536-.554 1.408-1.6 2.56-3.136 3.456-.725.427-1.482.757-2.272.992a7.353 7.353 0 0 1-2.272.384l-4.704.096-.384-.096Z"/><path fill="#000" stroke="#000" d="M83.546 93.467c-6.048-.796-14.17-4.338-17.474-6.009-1.024 7.776 1.086 23.876 17.717 26.065 16.631 2.19 19.185-14.284 18.383-22.795-3.69 1.245-12.579 3.535-18.626 2.74Z"/><mask id="b" width="38" height="29" x="65" y="86" maskUnits="userSpaceOnUse" style="mask-type:alpha"><path fill="#000" stroke="#000" d="M83.546 93.467c-6.048-.796-14.17-4.338-17.474-6.009-1.024 7.776 1.086 23.876 17.717 26.065 16.631 2.19 19.185-14.284 18.383-22.795-3.69 1.245-12.579 3.535-18.626 2.74Z"/></mask><g mask="url(#b)"><path fill="#D74826" d="M82.434 105.001c-4.299-.251-8.932 4.063-11.108 6.748a.964.964 0 0 0-.158.916l2.562 7.687a1 1 0 0 0 1.113.67l25.502-4.25a.975.975 0 0 0 .8-.756c.775-3.681 1.369-10.223-1.645-11.353-3.066-1.15-9.743-.556-13.082-.064a.978.978 0 0 0-.662.412l-1.437 2.053c-.56.801-1.504.429-1.243-.514l.101-.356c.164-.56-.162-1.159-.743-1.193Z"/><path fill="#D9D9D9" d="m69.127 91.736.348-2.088c.017-.098.048-.193.092-.282l.568-1.137a1 1 0 0 1 1.152-.519l14.031 3.742a1 1 0 0 0 .369.027l12.51-1.39a1 1 0 0 1 1.059.678l.244.733.642 1.606a1 1 0 0 1-.522 1.285l-2.569 1.142a1 1 0 0 1-1.367-.64l-.573-2.005a.534.534 0 0 0-1.045.205l.327 2.944a1 1 0 0 1-.853 1.1l-5.421.775a.606.606 0 0 1-.688-.533c-.076-.688-1.06-.73-1.196-.052l-.122.609a.702.702 0 0 1-.689.564h-2.82a1 1 0 0 1-.994-1.1l.361-3.612a.262.262 0 0 0-.517-.083l-.713 3.213a1 1 0 0 1-1.293.731l-4.092-1.364a1 1 0 0 1-.66-1.165l.709-3.19a.563.563 0 0 0-1.091-.278l-.498 1.742a1 1 0 0 1-1.368.639l-2.74-1.219a1 1 0 0 1-.58-1.078Z"/></g><path stroke="#000" d="M83.546 93.467c-6.048-.796-14.17-4.338-17.474-6.009-1.024 7.776 1.086 23.876 17.717 26.065 16.631 2.19 19.185-14.284 18.383-22.795-3.69 1.245-12.579 3.535-18.626 2.74Z"/><path stroke="#000" stroke-linecap="round" d="M154 98c-.267.714-1.6 3-4 3"/><path fill="#7E5319" d="M99.515 9c-5.28.82-12.32 16-11.44 16 3.08-2.872 9.24-11.897 12.76-13.128.44-1.641 0-2.462-1.32-2.872Z"/><path fill="#000" d="M88.075 25v.5h.197l.144-.134-.34-.366Zm11.44-16 .148-.477a.5.5 0 0 0-.225-.017l.077.494Zm1.32 2.872.165.472.25-.087.068-.256-.483-.13ZM88.075 24.5a.442.442 0 0 1 .4.26c.032.074.024.122.025.09a1.89 1.89 0 0 1 .078-.367c.11-.386.324-.96.63-1.67.61-1.415 1.562-3.319 2.707-5.25 1.146-1.934 2.474-3.877 3.832-5.382 1.38-1.528 2.709-2.51 3.845-2.687l-.154-.988c-1.503.234-3.035 1.456-4.433 3.005-1.42 1.573-2.786 3.578-3.95 5.542-1.165 1.966-2.138 3.908-2.765 5.364-.313.726-.546 1.345-.674 1.792a2.74 2.74 0 0 0-.115.6.795.795 0 0 0 .055.345.558.558 0 0 0 .52.346v-1ZM99.367 9.477c.59.184.88.427 1.017.713.144.302.176.776-.032 1.552l.966.26c.232-.866.264-1.623-.032-2.243-.303-.637-.893-1.01-1.623-1.236l-.296.954Zm1.303 1.923c-.988.345-2.099 1.207-3.225 2.276-1.14 1.082-2.35 2.432-3.535 3.82-1.183 1.385-2.362 2.834-3.42 4.093-1.067 1.271-2.011 2.351-2.756 3.045l.682.732c.796-.742 1.776-1.867 2.84-3.134 1.074-1.28 2.232-2.702 3.414-4.087 1.18-1.38 2.362-2.698 3.464-3.744 1.115-1.059 2.094-1.787 2.866-2.057l-.33-.944Z"/><path fill="#7E5319" d="M134.485 1c5.28.82 12.32 16 11.44 16-3.08-2.872-9.24-11.897-12.76-13.128-.44-1.641 0-2.462 1.32-2.872Z"/><path fill="#000" d="M145.925 17v.5h-.197l-.144-.134.341-.366Zm-11.44-16-.148-.477a.498.498 0 0 1 .225-.017l-.077.494Zm-1.32 2.872-.165.472-.25-.087-.068-.256.483-.13Zm12.76 12.628a.442.442 0 0 0-.4.26c-.032.074-.024.122-.025.09a1.874 1.874 0 0 0-.078-.367c-.11-.386-.324-.96-.63-1.67-.61-1.415-1.562-3.319-2.707-5.25-1.146-1.934-2.474-3.877-3.832-5.382-1.379-1.528-2.708-2.51-3.845-2.687l.154-.988c1.503.234 3.034 1.456 4.433 3.005 1.419 1.573 2.786 3.578 3.95 5.542 1.165 1.966 2.138 3.908 2.765 5.364.313.726.546 1.345.673 1.792.062.217.109.427.116.6a.795.795 0 0 1-.055.345.56.56 0 0 1-.519.346v-1ZM134.633 1.477c-.59.184-.88.427-1.017.712-.144.303-.176.777.032 1.553l-.966.26c-.232-.866-.264-1.622.032-2.243.303-.637.893-1.01 1.623-1.236l.296.954ZM133.33 3.4c.988.345 2.099 1.207 3.225 2.276 1.14 1.082 2.35 2.432 3.535 3.82 1.183 1.385 2.362 2.833 3.42 4.093 1.067 1.271 2.011 2.351 2.756 3.045l-.682.732c-.796-.742-1.776-1.867-2.84-3.134-1.074-1.28-2.232-2.702-3.414-4.087-1.18-1.38-2.362-2.698-3.464-3.744-1.115-1.059-2.094-1.787-2.866-2.057l.33-.944Z"/></svg>